<?xml version="1.0" encoding="UTF-8" standalone="no"?>
<svg
   xmlns:dc="http://purl.org/dc/elements/1.1/"
   xmlns:cc="http://creativecommons.org/ns#"
   xmlns:rdf="http://www.w3.org/1999/02/22-rdf-syntax-ns#"
   xmlns:svg="http://www.w3.org/2000/svg"
   xmlns="http://www.w3.org/2000/svg"
   xmlns:xlink="http://www.w3.org/1999/xlink"
   xmlns:sodipodi="http://sodipodi.sourceforge.net/DTD/sodipodi-0.dtd"
   xmlns:inkscape="http://www.inkscape.org/namespaces/inkscape"
   version="1.1"
   width="3147.783251231527"
   height="931.0344827586207"
   viewBox="0 0 3147.783251231527 931.0344827586207"
   id="svg35"
   sodipodi:docname="logo-solaceshades-new.svg"
   inkscape:version="1.0.2-2 (e86c870879, 2021-01-15)">
  <metadata
     id="metadata41">
    <rdf:RDF>
      <cc:Work
         rdf:about="">
        <dc:format>image/svg+xml</dc:format>
        <dc:type
           rdf:resource="http://purl.org/dc/dcmitype/StillImage" />
        <dc:title></dc:title>
      </cc:Work>
    </rdf:RDF>
  </metadata>
  <defs
     id="defs39">
    <linearGradient
       inkscape:collect="always"
       xlink:href="#SvgjsLinearGradient11312"
       id="linearGradient856"
       gradientTransform="scale(1.079025,0.92676258)"
       x1="4.6338129"
       y1="5.395125"
       x2="88.042446"
       y2="5.395125"
       gradientUnits="userSpaceOnUse" />
    <linearGradient
       inkscape:collect="always"
       xlink:href="#SvgjsLinearGradient11312"
       id="linearGradient858"
       gradientTransform="scale(1.079025,0.92676258)"
       x1="4.6338129"
       y1="5.395125"
       x2="88.042446"
       y2="5.395125"
       gradientUnits="userSpaceOnUse" />
    <linearGradient
       inkscape:collect="always"
       xlink:href="#SvgjsLinearGradient11316"
       id="linearGradient860"
       x1="0"
       y1="0"
       x2="1"
       y2="0"
       gradientUnits="userSpaceOnUse" />
    <linearGradient
       inkscape:collect="always"
       xlink:href="#SvgjsLinearGradient11316"
       id="linearGradient862"
       gradientTransform="scale(0.16823165,5.9441848)"
       x1="-1824.8647"
       y1="0"
       x2="-1807.0322"
       y2="0"
       gradientUnits="userSpaceOnUse" />
    <linearGradient
       inkscape:collect="always"
       xlink:href="#SvgjsLinearGradient11316"
       id="linearGradient864"
       gradientTransform="scale(1.7045998,0.58664797)"
       x1="-180.10093"
       y1="0"
       x2="0.58664797"
       y2="0"
       gradientUnits="userSpaceOnUse" />
    <linearGradient
       inkscape:collect="always"
       xlink:href="#SvgjsLinearGradient11320"
       id="linearGradient866"
       gradientTransform="scale(3.4346649,0.29114922)"
       x1="0.58229843"
       y1="48.909628"
       x2="89.883586"
       y2="48.909628"
       gradientUnits="userSpaceOnUse" />
    <linearGradient
       inkscape:collect="always"
       xlink:href="#SvgjsLinearGradient11320"
       id="linearGradient868"
       gradientTransform="scale(3.4346649,0.29114922)"
       x1="0.58229843"
       y1="48.909628"
       x2="89.883586"
       y2="48.909628"
       gradientUnits="userSpaceOnUse" />
    <linearGradient
       inkscape:collect="always"
       xlink:href="#SvgjsLinearGradient11324"
       id="linearGradient870"
       gradientTransform="scale(4.6146026,0.21670339)"
       x1="0.12568796"
       y1="35.347856"
       x2="70.913691"
       y2="35.347856"
       gradientUnits="userSpaceOnUse" />
    <linearGradient
       inkscape:collect="always"
       xlink:href="#SvgjsLinearGradient11324"
       id="linearGradient872"
       gradientTransform="scale(4.6146026,0.21670339)"
       x1="0.12568796"
       y1="35.347856"
       x2="70.913691"
       y2="35.347856"
       gradientUnits="userSpaceOnUse" />
    <defs
       id="SvgjsDefs11303">
      <linearGradient
         id="SvgjsLinearGradient11312">
        <stop
           id="SvgjsStop11313"
           stop-color="#905e26"
           offset="0" />
        <stop
           id="SvgjsStop11314"
           stop-color="#f5ec9b"
           offset="0.5" />
        <stop
           id="SvgjsStop11315"
           stop-color="#905e26"
           offset="1" />
      </linearGradient>
      <linearGradient
         id="SvgjsLinearGradient11316">
        <stop
           id="SvgjsStop11317"
           stop-color="#905e26"
           offset="0" />
        <stop
           id="SvgjsStop11318"
           stop-color="#f5ec9b"
           offset="0.5" />
        <stop
           id="SvgjsStop11319"
           stop-color="#905e26"
           offset="1" />
      </linearGradient>
      <linearGradient
         id="SvgjsLinearGradient11320">
        <stop
           id="SvgjsStop11321"
           stop-color="#905e26"
           offset="0" />
        <stop
           id="SvgjsStop11322"
           stop-color="#f5ec9b"
           offset="0.5" />
        <stop
           id="SvgjsStop11323"
           stop-color="#905e26"
           offset="1" />
      </linearGradient>
      <linearGradient
         id="SvgjsLinearGradient11324">
        <stop
           id="SvgjsStop11325"
           stop-color="#905e26"
           offset="0" />
        <stop
           id="SvgjsStop11326"
           stop-color="#f5ec9b"
           offset="0.5" />
        <stop
           id="SvgjsStop11327"
           stop-color="#905e26"
           offset="1" />
      </linearGradient>
    </defs>
  </defs>
  <sodipodi:namedview
     pagecolor="#505050"
     bordercolor="#ffffff"
     borderopacity="1"
     objecttolerance="10"
     gridtolerance="10"
     guidetolerance="10"
     inkscape:pageopacity="0"
     inkscape:pageshadow="2"
     inkscape:window-width="1920"
     inkscape:window-height="1009"
     id="namedview37"
     showgrid="false"
     inkscape:zoom="0.42241516"
     inkscape:cx="1573.8916"
     inkscape:cy="465.51724"
     inkscape:window-x="1272"
     inkscape:window-y="-8"
     inkscape:window-maximized="1"
     inkscape:current-layer="svg35"
     inkscape:document-rotation="0" />
  <g
     id="SvgjsG11304"
     featureKey="symbolFeature-0"
     transform="matrix(6.4333505,0,0,6.4333505,41.724873,189.50812)"
     fill="url(#SvgjsLinearGradient11312)"
     style="fill:url(#linearGradient858)">
    <path
       d="M 13.8,17.4 V 20 80 c 0,0.5 0.3,0.9 0.7,1.1 1.5,0.8 3.5,1.2 5.6,1.2 1.8,0 3.6,-0.3 5,-0.9 2.8,1.2 7.2,1.2 10,0 2.8,1.2 7.2,1.2 10,0 1.4,0.6 3.2,0.9 5,0.9 2.1,0 4.1,-0.4 5.6,-1.2 0.4,-0.2 0.7,-0.6 0.7,-1.1 V 75 H 85 c 1.4,0 2.5,-1.1 2.5,-2.5 v -45 C 87.5,26.1 86.4,25 85,25 H 56.3 V 20 17.5 H 85 C 90.5,17.5 95,13 95,7.5 95,6.1 93.9,5 92.5,5 91.1,5 90,6.1 90,7.5 c 0,2.8 -2.2,5 -5,5 H 15 c -2.8,0 -5,-2.2 -5,-5 C 10,6.1 8.9,5 7.5,5 6.1,5 5,6.1 5,7.5 c 0,5.1 3.8,9.3 8.8,9.9 z m 40,61.8 c -2.4,0.9 -6.1,0.7 -8.2,-0.3 -0.3,-0.2 -0.8,-0.2 -1.1,0 -1.1,0.6 -2.8,0.9 -4.4,0.9 -1.6,0 -3.3,-0.3 -4.4,-0.9 -0.4,-0.2 -0.8,-0.2 -1.1,0 -1.1,0.6 -2.8,0.9 -4.4,0.9 -1.6,0 -3.3,-0.3 -4.4,-0.9 -0.4,-0.2 -0.8,-0.2 -1.1,0 -2.1,1 -5.8,1.2 -8.2,0.3 V 21.8 c 1.1,0.3 2.4,0.5 3.8,0.5 1.8,0 3.6,-0.3 5,-0.9 2.8,1.2 7.2,1.2 10,0 2.8,1.2 7.2,1.2 10,0 1.4,0.6 3.2,0.9 5,0.9 1.3,0 2.6,-0.2 3.8,-0.5 v 57.4 z m 0,-60 c -1.1,0.4 -2.4,0.6 -3.8,0.6 -1.4,0 -2.7,-0.2 -3.8,-0.6 v -1.7 h 7.5 v 1.7 z m -10,0 c -1.1,0.4 -2.4,0.6 -3.8,0.6 -1.4,0 -2.7,-0.2 -3.8,-0.6 v -1.7 h 7.5 v 1.7 z m -10,0 c -1.1,0.4 -2.4,0.6 -3.8,0.6 -1.4,0 -2.7,-0.2 -3.8,-0.6 v -1.7 h 7.5 v 1.7 z m -10,0 c -1.1,0.4 -2.4,0.6 -3.8,0.6 -1.4,0 -2.7,-0.2 -3.8,-0.6 v -1.7 h 7.5 v 1.7 z m 32.5,32.1 h 7.5 V 70 H 56.3 Z M 66.3,70 V 51.3 H 82.6 V 70 Z M 82.5,48.8 H 66.3 V 30 H 82.6 V 48.8 Z M 63.8,30 V 48.8 H 56.3 V 30 Z"
       id="path19"
       style="fill:url(#linearGradient856)" />
  </g>
  <g
     id="SvgjsG11305"
     featureKey="textGroupContainer"
     transform="matrix(7.3891626,0,0,4.7570954,3066.5025,215.58508)"
     fill="url(#SvgjsLinearGradient11316)"
     style="fill:url(#linearGradient864)">
    <rect
       y="0"
       height="1"
       width="1"
       opacity="0"
       id="rect22"
       style="fill:url(#linearGradient860)"
       x="0" />
    <rect
       y="0"
       x="-307"
       width="3"
       height="106"
       id="rect24"
       style="fill:url(#linearGradient862)" />
  </g>
  <g
     id="SvgjsG11306"
     featureKey="nameFeature-0"
     transform="matrix(6.8991351,0,0,6.8991351,917.2362,175.15534)"
     fill="url(#SvgjsLinearGradient11320)"
     style="fill:url(#linearGradient868)">
    <path
       d="M 12.68,40.24 C 10.76,40.24 8.84,39.88 7,39.16 5.16,38.48 3.52,37.48 2.16,36.28 2,36.12 1.96,35.88 2.04,35.68 l 1.4,-4.76 c 0.08,-0.16 0.2,-0.28 0.36,-0.28 0.16,-0.04 0.32,0 0.44,0.12 2.12,2 4.52,3.8 7.52,3.96 0.8,0.04 1.68,0.08 2.44,-0.16 C 16.56,33.8 15.56,31.4 13.8,30.68 13.2,30.44 12.36,30.16 11.28,29.84 9.68,29.4 8.36,28.92 7.36,28.44 6.28,27.96 5.36,27.2 4.56,26.2 3.8,25.16 3.4,23.8 3.4,22.16 3.4,20.6 3.8,19.24 4.6,18.08 5.4,16.92 6.52,16 7.92,15.4 c 1.4,-0.6 3.04,-0.92 4.88,-0.92 1.64,0 3.24,0.24 4.84,0.76 1.56,0.48 2.96,1.16 4.2,1.96 0.2,0.16 0.28,0.4 0.16,0.64 l -1.32,4.48 c -0.04,0.16 -0.16,0.24 -0.32,0.28 -0.12,0.04 -0.28,0.04 -0.4,-0.04 -1.8,-1.12 -3.6,-2.48 -5.72,-2.76 -1.4,-0.2 -3.52,-0.12 -4,1.56 -0.6,2.16 2.56,2.72 4,3.16 1.6,0.48 2.92,0.96 3.96,1.44 1.08,0.52 2.04,1.32 2.8,2.32 0.8,1.04 1.2,2.44 1.2,4.12 0,1.64 -0.44,3.04 -1.28,4.24 -0.8,1.2 -1.96,2.08 -3.4,2.72 -1.44,0.56 -3.04,0.88 -4.84,0.88 z M 39.08,40 c -2.4,0 -4.6,-0.56 -6.52,-1.68 -1.96,-1.12 -3.52,-2.72 -4.68,-4.64 -1.12,-1.96 -1.68,-4.2 -1.68,-6.6 0,-2.36 0.56,-4.56 1.68,-6.52 1.16,-1.96 2.68,-3.52 4.64,-4.64 1.96,-1.12 4.16,-1.68 6.56,-1.68 2.36,0 4.56,0.56 6.52,1.68 1.96,1.12 3.52,2.68 4.64,4.64 1.16,1.96 1.72,4.16 1.72,6.52 0,2.4 -0.56,4.6 -1.72,6.56 -1.12,1.96 -2.68,3.52 -4.64,4.68 C 43.64,39.44 41.44,40 39.08,40 Z m 0.08,-5.76 c 1.16,0 2.24,-0.32 3.2,-0.92 1,-0.64 1.8,-1.48 2.36,-2.6 0.6,-1.08 0.88,-2.32 0.88,-3.64 0,-1.28 -0.28,-2.52 -0.88,-3.6 C 44.16,22.4 43.36,21.56 42.36,20.92 41.4,20.32 40.32,20 39.16,20 c -1.2,0 -2.28,0.32 -3.28,0.92 -1.04,0.64 -1.84,1.48 -2.44,2.56 -0.6,1.12 -0.88,2.32 -0.88,3.6 0,1.32 0.28,2.56 0.88,3.64 0.64,1.08 1.44,1.96 2.44,2.56 1,0.64 2.08,0.96 3.28,0.96 z M 56.48,40 C 56.2,40 55.96,39.76 55.96,39.48 V 15.52 C 55.96,15.24 56.2,15 56.48,15 h 5.2 c 0.28,0 0.52,0.24 0.52,0.52 v 18.72 h 9 c 0.28,0 0.52,0.24 0.52,0.52 v 4.72 c 0,0.28 -0.24,0.52 -0.52,0.52 z m 19.76,0 c -0.16,0 -0.32,-0.08 -0.4,-0.24 -0.12,-0.12 -0.12,-0.32 -0.08,-0.48 L 85.08,15.32 C 85.16,15.12 85.36,15 85.56,15 h 5.36 c 0.2,0 0.4,0.12 0.48,0.32 l 9.16,23.96 c 0.04,0.16 0.04,0.32 -0.08,0.48 -0.08,0.16 -0.24,0.24 -0.4,0.24 h -5.56 c -0.2,0 -0.4,-0.12 -0.48,-0.32 L 92.56,36 l -9,0.04 -1.48,3.64 C 82,39.88 81.8,40 81.6,40 Z m 8.96,-9 h 5.76 l -2.88,-8.48 z m 29.2,9 c -2.36,0 -4.52,-0.56 -6.44,-1.68 -1.92,-1.16 -3.44,-2.72 -4.52,-4.68 -1.08,-1.96 -1.64,-4.16 -1.64,-6.6 0,-2.36 0.56,-4.56 1.68,-6.52 1.12,-1.92 2.68,-3.48 4.6,-4.6 1.96,-1.12 4.16,-1.68 6.48,-1.68 1.76,0 3.48,0.4 5.16,1.12 1.68,0.76 3.12,1.76 4.32,3.04 0.16,0.2 0.16,0.48 0,0.68 l -3.8,3.12 c -0.12,0.12 -0.24,0.2 -0.4,0.2 -0.16,0 -0.32,-0.08 -0.4,-0.2 -2.04,-2.48 -5.32,-3 -8.08,-1.28 -2.4,1.48 -3.28,4.2 -3.16,6.92 0.12,2.76 2.12,5.12 4.76,5.92 2.4,0.72 4.76,0.16 6.48,-1.68 0.12,-0.08 0.24,-0.16 0.4,-0.12 0.16,0 0.28,0.04 0.36,0.16 l 3.88,2.72 c 0.16,0.2 0.16,0.48 0,0.68 -1.28,1.36 -2.8,2.48 -4.48,3.28 -1.72,0.8 -3.48,1.2 -5.2,1.2 z m 13.8,0 V 16.04 c 0,-1 0.2,-1.2 0.52,-1.2 h 17.52 c 0.28,0 0.52,0.2 0.52,0.48 v 4.52 c 0,0.28 -0.24,0.52 -0.52,0.52 H 134.4 v 4.16 h 7.48 c 0.28,0 0.52,0.24 0.52,0.52 v 4.48 c 0,0.28 -0.24,0.52 -0.52,0.52 h -7.48 v 4.28 h 11.8 c 0.28,0 0.52,0.24 0.52,0.52 v 4.48 c 0,0.28 -0.24,0.52 -0.52,0.52 h -17.48 c -0.32,0 -0.52,-0.24 -0.52,0.16 z m 44.04,0.24 c -1.92,0 -3.84,-0.36 -5.68,-1.08 -1.84,-0.68 -3.48,-1.68 -4.84,-2.88 -0.16,-0.16 -0.2,-0.4 -0.12,-0.6 l 1.4,-4.76 c 0.08,-0.16 0.2,-0.28 0.36,-0.28 0.16,-0.04 0.32,0 0.44,0.12 2.12,2 4.52,3.8 7.52,3.96 0.8,0.04 1.68,0.08 2.44,-0.16 2.36,-0.76 1.36,-3.16 -0.4,-3.88 -0.6,-0.24 -1.44,-0.52 -2.52,-0.84 -1.6,-0.44 -2.92,-0.92 -3.92,-1.4 -1.08,-0.48 -2,-1.24 -2.8,-2.24 -0.76,-1.04 -1.16,-2.4 -1.16,-4.04 0,-1.56 0.4,-2.92 1.2,-4.08 0.8,-1.16 1.92,-2.08 3.32,-2.68 1.4,-0.6 3.04,-0.92 4.88,-0.92 1.64,0 3.24,0.24 4.84,0.76 1.56,0.48 2.96,1.16 4.2,1.96 0.2,0.16 0.28,0.4 0.16,0.64 l -1.32,4.48 c -0.04,0.16 -0.16,0.24 -0.32,0.28 -0.12,0.04 -0.28,0.04 -0.4,-0.04 -1.8,-1.12 -3.6,-2.48 -5.72,-2.76 -1.4,-0.2 -3.52,-0.12 -4,1.56 -0.6,2.16 2.56,2.72 4,3.16 1.6,0.48 2.92,0.96 3.96,1.44 1.08,0.52 2.04,1.32 2.8,2.32 0.8,1.04 1.2,2.44 1.2,4.12 0,1.64 -0.44,3.04 -1.28,4.24 -0.8,1.2 -1.96,2.08 -3.4,2.72 -1.44,0.56 -3.04,0.88 -4.84,0.88 z M 186.28,40 c -0.28,0 -0.52,-0.24 -0.52,-0.52 V 15.52 c 0,-0.28 0.24,-0.52 0.52,-0.52 h 5.2 c 0.28,0 0.52,0.24 0.52,0.52 v 9.84 h 9.04 v -9.84 c 0,-0.28 0.24,-0.52 0.52,-0.52 h 5.2 c 0.28,0 0.52,0.24 0.52,0.52 v 23.96 c 0,0.28 -0.24,0.52 -0.52,0.52 h -5.2 c -0.28,0 -0.52,-0.24 -0.52,-0.52 v -8.6 H 192 v 8.6 c 0,0.28 -0.24,0.52 -0.52,0.52 z m 25.52,0 c -0.16,0 -0.32,-0.08 -0.4,-0.24 -0.12,-0.12 -0.12,-0.32 -0.08,-0.48 l 9.32,-23.96 c 0.08,-0.2 0.28,-0.32 0.48,-0.32 h 5.36 c 0.2,0 0.4,0.12 0.48,0.32 l 9.16,23.96 c 0.04,0.16 0.04,0.32 -0.08,0.48 -0.08,0.16 -0.24,0.24 -0.4,0.24 h -5.56 c -0.2,0 -0.4,-0.12 -0.48,-0.32 l -1.48,-3.68 -9,0.04 -1.48,3.64 c -0.08,0.2 -0.28,0.32 -0.48,0.32 z m 8.96,-9 h 5.76 l -2.88,-8.48 z m 19.52,9 c -0.32,0 -0.52,-0.24 -0.52,-0.52 V 15.52 c 0,-0.28 0.2,-0.52 0.52,-0.52 h 9.08 c 2.4,0 4.6,0.52 6.52,1.6 1.92,1.04 3.4,2.52 4.48,4.44 1.04,1.88 1.6,4.04 1.6,6.44 0,2.44 -0.56,4.6 -1.64,6.48 -1.08,1.92 -2.6,3.4 -4.56,4.44 -1.92,1.08 -4.16,1.6 -6.6,1.6 z m 5.68,-5.6 h 3.52 c 1.16,0 2.24,-0.28 3.16,-0.84 0.92,-0.6 1.68,-1.4 2.2,-2.44 0.52,-1.04 0.8,-2.24 0.8,-3.6 0,-1.32 -0.28,-2.56 -0.84,-3.6 -0.56,-1.08 -1.32,-1.88 -2.28,-2.48 -0.96,-0.56 -2.08,-0.88 -3.28,-0.88 h -3.28 z m 20,5.6 V 16.04 c 0,-1 0.2,-1.2 0.52,-1.2 H 284 c 0.28,0 0.52,0.2 0.52,0.48 v 4.52 c 0,0.28 -0.24,0.52 -0.52,0.52 h -11.84 v 4.16 h 7.48 c 0.28,0 0.52,0.24 0.52,0.52 v 4.48 c 0,0.28 -0.24,0.52 -0.52,0.52 h -7.48 v 4.28 h 11.8 c 0.28,0 0.52,0.24 0.52,0.52 v 4.48 c 0,0.28 -0.24,0.52 -0.52,0.52 h -17.48 c -0.32,0 -0.52,-0.24 -0.52,0.16 z m 33.24,0.24 c -1.92,0 -3.84,-0.36 -5.68,-1.08 -1.84,-0.68 -3.48,-1.68 -4.84,-2.88 -0.16,-0.16 -0.2,-0.4 -0.12,-0.6 l 1.4,-4.76 c 0.08,-0.16 0.2,-0.28 0.36,-0.28 0.16,-0.04 0.32,0 0.44,0.12 2.12,2 4.52,3.8 7.52,3.96 0.8,0.04 1.68,0.08 2.44,-0.16 2.36,-0.76 1.36,-3.16 -0.4,-3.88 -0.6,-0.24 -1.44,-0.52 -2.52,-0.84 -1.6,-0.44 -2.92,-0.92 -3.92,-1.4 -1.08,-0.48 -2,-1.24 -2.8,-2.24 -0.76,-1.04 -1.16,-2.4 -1.16,-4.04 0,-1.56 0.4,-2.92 1.2,-4.08 0.8,-1.16 1.92,-2.08 3.32,-2.68 1.4,-0.6 3.04,-0.92 4.88,-0.92 1.64,0 3.24,0.24 4.84,0.76 1.56,0.48 2.96,1.16 4.2,1.96 0.2,0.16 0.28,0.4 0.16,0.64 l -1.32,4.48 c -0.04,0.16 -0.16,0.24 -0.32,0.28 -0.12,0.04 -0.28,0.04 -0.4,-0.04 -1.8,-1.12 -3.6,-2.48 -5.72,-2.76 -1.4,-0.2 -3.52,-0.12 -4,1.56 -0.6,2.16 2.56,2.72 4,3.16 1.6,0.48 2.92,0.96 3.96,1.44 1.08,0.52 2.04,1.32 2.8,2.32 0.8,1.04 1.2,2.44 1.2,4.12 0,1.64 -0.44,3.04 -1.28,4.24 -0.8,1.2 -1.96,2.08 -3.4,2.72 -1.44,0.56 -3.04,0.88 -4.84,0.88 z"
       id="path27"
       style="fill:url(#linearGradient866)" />
  </g>
  <g
     id="SvgjsG11307"
     featureKey="sloganFeature-0"
     transform="matrix(6.4231324,0,0,6.4231324,927.30907,518.80822)"
     fill="url(#SvgjsLinearGradient11324)"
     style="fill:url(#linearGradient872)">
    <path
       d="M 4.4,20 V 15.46 C 1.98,14.92 0.58,12.92 0.58,10.52 V 7.76 h 3 v 2.76 c 0,1.44 0.86,2.32 2.3,2.32 1.48,0 2.3,-0.86 2.3,-2.32 V 7.76 h 3 v 2.76 c 0,2.44 -1.42,4.38 -3.78,4.94 V 20 Z m 17.0295,-2.68 c 2.18,0 3.3,-1.4 3.3,-3.44 0,-2.16 -1.2,-3.44 -3.3,-3.44 -2.2,0 -3.3,1.4 -3.3,3.44 0,2.12 1.22,3.44 3.3,3.44 z m 0,2.78 c -3.76,0 -6.3,-2.56 -6.3,-6.22 0,-3.78 2.66,-6.22 6.3,-6.22 3.78,0 6.3,2.54 6.3,6.22 0,3.8 -2.64,6.22 -6.3,6.22 z M 39.819,7.76 h 3 V 15 c 0,3.18 -2.28,5.1 -5.3,5.1 -3.1,0 -5.3,-2.04 -5.3,-5.1 V 7.76 h 3 V 15 c 0,1.44 0.86,2.32 2.3,2.32 1.48,0 2.3,-0.86 2.3,-2.32 z m 10.8895,2.82 v 2.92 h 2.8 c 0.92,0 1.46,-0.54 1.46,-1.46 0,-0.92 -0.54,-1.46 -1.46,-1.46 z m 4.54,4.9 c 0.56,0.76 1.12,1.52 1.7,2.26 0.56,0.74 1.12,1.5 1.68,2.26 h -3.66 c -0.72,-0.96 -1.42,-1.92 -2.12,-2.88 -0.7,-0.94 -1.42,-1.9 -2.14,-2.86 V 20 h -3 V 7.76 h 5.8 c 2.28,0 4.22,1.74 4.22,4.04 0,1.62 -1,3.04 -2.48,3.68 z m 24.239,1.1 v 3.08 c -1.24,0.34 -2.48,0.48 -3.76,0.48 -3.76,0 -6.28,-2.58 -6.28,-6.24 0,-3.76 2.62,-6.24 6.26,-6.24 1.26,0 2.58,0.1 3.78,0.48 v 3.08 c -0.98,-0.48 -2.52,-0.66 -3.6,-0.66 -2.44,0 -3.44,1 -3.44,3.32 0,2.46 1.18,3.36 3.46,3.36 1.02,0 2.68,-0.16 3.58,-0.66 z m 10.3095,0.74 c 2.18,0 3.3,-1.4 3.3,-3.44 0,-2.16 -1.2,-3.44 -3.3,-3.44 -2.2,0 -3.3,1.4 -3.3,3.44 0,2.12 1.22,3.44 3.3,3.44 z m 0,2.78 c -3.76,0 -6.3,-2.56 -6.3,-6.22 0,-3.78 2.66,-6.22 6.3,-6.22 3.78,0 6.3,2.54 6.3,6.22 0,3.8 -2.64,6.22 -6.3,6.22 z m 13.9495,-6.84 V 20 h -3 V 7.76 h 3 l 3.82,6.76 3.82,-6.76 h 3 V 20 h -3 v -6.74 l -2.32,3.98 h -3 z m 15.7295,-5.5 h 9.1 v 2.78 h -6.1 v 1.96 h 4.9 v 2.78 h -4.9 V 20 h -3 z m 19.0495,9.56 c 2.18,0 3.3,-1.4 3.3,-3.44 0,-2.16 -1.2,-3.44 -3.3,-3.44 -2.2,0 -3.3,1.4 -3.3,3.44 0,2.12 1.22,3.44 3.3,3.44 z m 0,2.78 c -3.76,0 -6.3,-2.56 -6.3,-6.22 0,-3.78 2.66,-6.22 6.3,-6.22 3.78,0 6.3,2.54 6.3,6.22 0,3.8 -2.64,6.22 -6.3,6.22 z m 13.9495,-9.52 v 2.92 h 2.8 c 0.92,0 1.46,-0.54 1.46,-1.46 0,-0.92 -0.54,-1.46 -1.46,-1.46 z m 4.54,4.9 c 0.56,0.76 1.12,1.52 1.7,2.26 0.56,0.74 1.12,1.5 1.68,2.26 h -3.66 c -0.72,-0.96 -1.42,-1.92 -2.12,-2.88 -0.7,-0.94 -1.42,-1.9 -2.14,-2.86 V 20 h -3 V 7.76 h 5.8 c 2.28,0 4.22,1.74 4.22,4.04 0,1.62 -1,3.04 -2.48,3.68 z m 6.7095,-7.72 h 10.2 v 2.78 h -3.6 V 20 h -3 v -9.46 h -3.6 z m 17.9495,11.14 -1.44,4.1 h -1.44 l 1.06,-3.04 c -0.92,-0.04 -1.54,-0.8 -1.54,-1.7 0,-1.02 0.72,-1.74 1.74,-1.74 1.06,0 1.72,0.68 1.72,1.74 0,0.2 -0.04,0.42 -0.1,0.64 z m 15.699,1.1 v -4.54 c -2.42,-0.54 -3.82,-2.54 -3.82,-4.94 V 7.76 h 3 v 2.76 c 0,1.44 0.86,2.32 2.3,2.32 1.48,0 2.3,-0.86 2.3,-2.32 V 7.76 h 3 v 2.76 c 0,2.44 -1.42,4.38 -3.78,4.94 V 20 Z m 17.0295,-2.68 c 2.18,0 3.3,-1.4 3.3,-3.44 0,-2.16 -1.2,-3.44 -3.3,-3.44 -2.2,0 -3.3,1.4 -3.3,3.44 0,2.12 1.22,3.44 3.3,3.44 z m 0,2.78 c -3.76,0 -6.3,-2.56 -6.3,-6.22 0,-3.78 2.66,-6.22 6.3,-6.22 3.78,0 6.3,2.54 6.3,6.22 0,3.8 -2.64,6.22 -6.3,6.22 z M 232.792,7.76 h 3 V 15 c 0,3.18 -2.28,5.1 -5.3,5.1 -3.1,0 -5.3,-2.04 -5.3,-5.1 V 7.76 h 3 V 15 c 0,1.44 0.86,2.32 2.3,2.32 1.48,0 2.3,-0.86 2.3,-2.32 z m 10.8895,2.82 v 2.92 h 2.8 c 0.92,0 1.46,-0.54 1.46,-1.46 0,-0.92 -0.54,-1.46 -1.46,-1.46 z m 4.54,4.9 c 0.56,0.76 1.12,1.52 1.7,2.26 0.56,0.74 1.12,1.5 1.68,2.26 h -3.66 c -0.72,-0.96 -1.42,-1.92 -2.12,-2.88 -0.7,-0.94 -1.42,-1.9 -2.14,-2.86 V 20 h -3 V 7.76 h 5.8 c 2.28,0 4.22,1.74 4.22,4.04 0,1.62 -1,3.04 -2.48,3.68 z m 14.019,4.22 v -2.82 c 0.24,0.06 0.54,0.12 0.88,0.16 0.34,0.06 0.7,0.1 1.08,0.12 0.38,0.02 0.76,0.04 1.16,0.06 0.4,0.02 0.78,0.04 1.12,0.04 0.94,0 1.6,-0.06 2,-0.16 0.38,-0.1 0.58,-0.28 0.58,-0.56 0,-0.24 -0.18,-0.42 -0.36,-0.56 -0.66,-0.44 -1.44,-0.62 -2.22,-0.8 -2.2,-0.44 -4.22,-1.32 -4.22,-3.84 0,-2.98 2.82,-3.68 5.24,-3.68 1.34,0 2.7,0.14 4,0.46 v 2.82 c -0.2,-0.06 -0.46,-0.1 -0.78,-0.16 -0.34,-0.04 -0.68,-0.08 -1.06,-0.12 -0.78,-0.08 -1.52,-0.12 -2.3,-0.12 -0.44,0 -1.36,0 -1.78,0.16 -0.28,0.1 -0.46,0.22 -0.46,0.54 0,0.16 0.04,0.3 0.12,0.42 0.08,0.14 0.22,0.24 0.4,0.34 0.54,0.3 1.24,0.48 1.84,0.62 0.5,0.12 1,0.26 1.52,0.4 1.76,0.48 2.92,1.46 2.92,3.34 0,3.1 -3.08,3.76 -5.56,3.76 -1.36,0 -2.78,-0.1 -4.12,-0.42 z M 275.65,7.76 h 10.2 v 2.78 h -3.6 V 20 h -3 v -9.46 h -3.6 z M 293.4595,20 v -4.54 c -2.42,-0.54 -3.82,-2.54 -3.82,-4.94 V 7.76 h 3 v 2.76 c 0,1.44 0.86,2.32 2.3,2.32 1.48,0 2.3,-0.86 2.3,-2.32 V 7.76 h 3 v 2.76 c 0,2.44 -1.42,4.38 -3.78,4.94 V 20 Z M 313.829,17.22 V 20 h -9.1 V 7.76 h 3 v 9.46 z m 4.3095,-9.46 h 9.1 v 2.78 h -6.1 v 1.96 h 4.9 v 2.78 h -4.9 v 1.94 h 6.1 V 20 h -9.1 z"
       id="path30"
       style="fill:url(#linearGradient870)" />
  </g>
</svg>
